<?xml version="1.0" encoding="utf-8"?>
<!-- Generator: Adobe Illustrator 15.0.0, SVG Export Plug-In . SVG Version: 6.00 Build 0)  -->
<!DOCTYPE svg PUBLIC "-//W3C//DTD SVG 1.1//EN" "http://www.w3.org/Graphics/SVG/1.1/DTD/svg11.dtd">
<svg version="1.1" id="Capa_1" xmlns="http://www.w3.org/2000/svg" xmlns:xlink="http://www.w3.org/1999/xlink" x="0px" y="0px"
	 width="11.617px" height="23.102px" viewBox="0 0 11.617 23.102" enable-background="new 0 0 11.617 23.102" xml:space="preserve">
<path fill="#BDD4DE" d="M2.516,4.458c0-0.144,0.02-0.455,0.06-0.931c0.043-0.478,0.223-0.976,0.546-1.5
	c0.32-0.522,0.839-0.991,1.561-1.406C5.402,0.208,6.441,0,7.797,0h3.82v4.163H8.82c-0.277,0-0.535,0.104-0.768,0.31
	S7.702,4.872,7.702,5.053v2.59h3.914c-0.041,0.507-0.087,1-0.138,1.476l-0.156,1.258c-0.061,0.426-0.125,0.819-0.186,1.183H7.674
	v11.542H2.516V11.558H0V7.643h2.516V4.458z"/>
</svg>
