<?xml version="1.0" encoding="utf-8"?>
<!-- Generator: Adobe Illustrator 15.0.0, SVG Export Plug-In . SVG Version: 6.00 Build 0)  -->
<!DOCTYPE svg PUBLIC "-//W3C//DTD SVG 1.1//EN" "http://www.w3.org/Graphics/SVG/1.1/DTD/svg11.dtd">
<svg version="1.1" id="Capa_1" xmlns="http://www.w3.org/2000/svg" xmlns:xlink="http://www.w3.org/1999/xlink" x="0px" y="0px"
	 width="283.46px" height="283.46px" viewBox="0 0 283.46 283.46" enable-background="new 0 0 283.46 283.46" xml:space="preserve">
<g>
	<path fill="#BDD4DE" d="M24.865,258.666h33.284c4.592,0,8.314-3.722,8.314-8.313V104.869c0-4.592-3.722-8.313-8.314-8.313H24.865
		c-4.592,0-8.314,3.722-8.314,8.313v145.483C16.551,254.944,20.273,258.666,24.865,258.666z"/>
	<path fill="#BDD4DE" d="M24.865,70.979h33.284c4.592,0,8.314-3.722,8.314-8.314V33.108c0-4.592-3.722-8.313-8.314-8.313H24.865
		c-4.592,0-8.314,3.722-8.314,8.313v29.557C16.551,67.256,20.273,70.979,24.865,70.979z"/>
	<path fill="#BDD4DE" d="M260.054,113.429c-4.677-6.157-11.573-11.219-20.692-15.188c-9.118-3.966-19.185-5.95-30.196-5.95
		c-22.357,0-41.301,8.532-56.832,25.6c-3.089,3.396-5.337,2.653-5.337-1.939v-11.083c0-4.592-3.722-8.313-8.314-8.313h-29.732
		c-4.592,0-8.314,3.722-8.314,8.313v145.483c0,4.592,3.722,8.313,8.314,8.313h33.283c4.593,0,8.314-3.722,8.314-8.313v-50.595
		c0-21.078,1.273-35.526,3.818-43.342c2.545-7.814,7.254-14.09,14.122-18.827c6.868-4.736,14.624-7.106,23.269-7.106
		c6.75,0,12.523,1.658,17.32,4.975c4.796,3.316,8.26,7.962,10.391,13.943c2.133,5.981,3.198,19.154,3.198,39.523v61.429
		c0,4.592,3.722,8.313,8.313,8.313h33.284c4.592,0,8.313-3.722,8.313-8.313v-82.391c0-14.564-0.918-25.755-2.752-33.57
		S264.734,119.589,260.054,113.429z"/>
</g>
</svg>
